<?xml version="1.0" standalone="no"?>
<!DOCTYPE svg PUBLIC "-//W3C//DTD SVG 20010904//EN"
 "http://www.w3.org/TR/2001/REC-SVG-20010904/DTD/svg10.dtd">
<svg version="1.0" xmlns="http://www.w3.org/2000/svg"
 width="256.000000pt" height="256.000000pt" viewBox="0 0 256.000000 256.000000"
 preserveAspectRatio="xMidYMid meet">
<metadata>
Created by potrace 1.14, written by Peter Selinger 2001-2017
</metadata>
<g transform="translate(0.000000,256.000000) scale(0.100000,-0.100000)"
fill="#000000" stroke="none">
<path d="M1345 2419 c-59 -11 -125 -37 -168 -65 l-39 -25 -61 29 c-206 98
-440 41 -575 -139 -20 -27 -44 -49 -54 -49 -34 0 -141 -41 -187 -72 -58 -38
-123 -109 -155 -168 -43 -79 -56 -143 -52 -248 4 -86 1 -105 -22 -162 -28 -72
-38 -195 -20 -272 50 -228 255 -383 491 -372 l65 3 22 -62 c71 -195 246 -318
452 -318 50 0 97 7 138 21 34 12 64 20 65 18 2 -2 38 -70 80 -153 43 -82 94
-167 113 -187 75 -79 201 -82 279 -6 56 54 67 88 67 210 1 102 3 111 29 108
15 -2 127 46 169 73 73 47 120 99 165 181 35 63 42 70 83 82 155 46 285 185
319 344 25 115 -3 256 -70 356 -30 45 -111 120 -145 136 -17 8 -20 18 -18 67
9 253 -182 462 -434 476 -75 4 -76 5 -119 50 -103 112 -274 170 -418 144z"/>
</g>
</svg>
